<svg xmlns="http://www.w3.org/2000/svg" viewBox="0 0 32 32" aria-hidden="true" role="presentation" focusable="false" style="display: block; height: 16px; width: 16px; fill: currentcolor;"><path fill="#222" d="M30 0a2 2 0 0 1 2 2v28a2 2 0 0 1-2 2H2a2 2 0 0 1-2-2V2a2 2 0 0 1 2-2z"></path><path fill="#fff" d="M23.92 6A4.1 4.1 0 0 1 28 9.88l.01.2v9.84A4.08 4.08 0 0 1 24.13 24h-5.86l-1.91 3.31a.45.45 0 0 1-.73.08l-.05-.08-1.91-3.3h-5.6a4.08 4.08 0 0 1-4.06-3.87l-.01-.2v-9.86a4.08 4.08 0 0 1 3.87-4.06l.2-.01zm-1.99 7.22c-1.13 0-2.05.95-2.05 2.12 0 1.16.92 2.1 2.05 2.1.47 0 .9-.15 1.24-.42v.59l-.03.08-.05.1c-.11.16-.36.39-.9.39v1.09h.22c.3-.02.87-.13 1.42-.61l.13-.13.05-.06.1-.12c.11-.17.26-.44.31-.76v-4.28h-1.25v.34a2.02 2.02 0 0 0-1.24-.43zM8.81 11.9H7.58v5.6H8.8v-.4c.35.3.79.5 1.27.5 1.1 0 2-.98 2-2.19s-.89-2.2-2-2.2c-.42 0-.81.15-1.14.4l-.13.1zm8.3 1.31c-1.23 0-2.23.98-2.23 2.2s1 2.18 2.23 2.18c1.22 0 2.22-.98 2.22-2.19s-1-2.19-2.22-2.19zm-3.35-.66a1.98 1.98 0 0 0-1.33-.75H12.22v1.12l.08.01c.14.04.44.16.56.5l.04.12v3.94h1.27v-3.97a2.12 2.12 0 0 0-.24-.7l-.08-.15zM9.84 14.3a1.1 1.1 0 1 1 0 2.19 1.1 1.1 0 0 1-1.12-1.1c0-.15.04-.3.1-.43.17-.4.56-.66 1.02-.66zm7.27.05c.58 0 1.06.47 1.06 1.04s-.47 1.05-1.06 1.05c-.6 0-1.07-.47-1.07-1.05s.48-1.04 1.07-1.04zm5.05-.11c.44 0 .83.24 1.01.6.08.15.12.3.12.48s-.05.34-.12.48c-.18.36-.57.6-1 .6a1.1 1.1 0 0 1-1.13-1.08c0-.6.5-1.08 1.12-1.08z"></path></svg>