<svg viewBox="0 0 32 32" xmlns="http://www.w3.org/2000/svg" aria-hidden="true" role="presentation" focusable="false" style="display: block; height: 16px; width: 16px; fill: currentcolor;"><path d="m15.9700599 1c-8.26766469 0-14.9700599 6.70239521-14.9700599 14.9700599 0 7.0203593 4.83353293 12.9113772 11.3538922 14.5293413v-9.954491h-3.08682633v-4.5748503h3.08682633v-1.9712575c0-5.09520959 2.305988-7.45688623 7.3083832-7.45688623.948503 0 2.58503.18622754 3.2544911.37185629v4.14670654c-.3532934-.0371257-.9670659-.0556886-1.7293414-.0556886-2.454491 0-3.402994.9299401-3.402994 3.3473054v1.6179641h4.8898204l-.8401198 4.5748503h-4.0497006v10.2856287c7.4125749-.8952096 13.1562875-7.2065868 13.1562875-14.860479-.0005988-8.26766469-6.702994-14.9700599-14.9706587-14.9700599z"></path></svg>