<svg viewBox="0 0 32 32" xmlns="http://www.w3.org/2000/svg" aria-hidden="true" role="presentation" focusable="false" style="display: block; height: 16px; width: 16px; fill: currentcolor;"><path d="m9.78762432 1.10490642c-1.596.0753-2.6859.33-3.6387.7044-.9861.3843-1.8219.9-2.6535 1.7346s-1.3437 1.671-1.7253 2.6586c-.3693.9549-.6195 2.0457-.69 3.6426-.0705 1.59689998-.0861 2.11019998-.0783 6.18359998s.0258 4.584.1032 6.1842c.0762 1.5957.33 2.6853.7044 3.6384.3849.9861.9 1.8216 1.7349 2.6535s1.6707 1.3428 2.6607 1.725c.954.3687 2.0451.6201 3.6417.69 1.59659998.0699 2.11049998.0861 6.18269998.0783s4.5849-.0258 6.1848-.1017 2.6838-.3315 3.6372-.7041c.9861-.3858 1.8222-.9 2.6535-1.7352s1.3431-1.6722 1.7244-2.6604c.3696-.954.6207-2.0451.69-3.6405.0699-1.6011.0864-2.1123.0786-6.1851s-.0261-4.5834-.102-6.18299998c-.0759-1.5996-.33-2.6859-.7041-3.6396-.3855-.9861-.9-1.821-1.7346-2.6535s-1.6722-1.344-2.6601-1.7244c-.9546-.3693-2.0451-.621-3.6417-.69s-2.1105-.0867-6.1842-.0789-4.5837.0252-6.18359998.1032m.1752 27.11639998c-1.4625-.0636-2.2566-.3066-2.7858-.51-.7008-.27-1.2-.5964-1.7274-1.1187s-.8514-1.0233-1.125-1.7226c-.2055-.5292-.453-1.3224-.5214-2.7849-.0744-1.5807-.09-2.0553-.0987-6.06s.0066-4.4787.0759-6.05999998c.0624-1.4613.3069-2.2563.51-2.7852.27-.7017.5952-1.2 1.1187-1.7271s1.023-.8517 1.7229-1.1253c.5286-.2064 1.3218-.4518 2.7837-.5214 1.58189998-.075 2.05589998-.09 6.05999998-.0987s4.4793.0063 6.0618.0759c1.4613.0636 2.2566.3057 2.7849.51.7011.27 1.2.5943 1.7271 1.1187s.852 1.0221 1.1256 1.7235c.2067.5271.4521 1.32.5211 2.7828.0753 1.58189998.0924 2.05619998.0996 6.05999998s-.0069 4.4793-.0762 6.06c-.0639 1.4625-.3063 2.2569-.51 2.7867-.27.7005-.5955 1.2-1.1193 1.7268s-1.0227.8514-1.7229 1.125c-.528.2061-1.3221.4521-2.7828.5217-1.5819.0744-2.0559.09-6.0615.0987s-4.4781-.0075-6.05999998-.0759m12.22799748-20.23829998c.0012175.72808507.4409323 1.38373514 1.114083 1.66118326s1.4471512.12204713 1.9610409-.39373063.6664512-1.2903429.3865363-1.96247162c-.2799148-.67212872-.937173-1.10943617-1.6652577-1.10798463-.9938786.00199-1.7980584.80912438-1.7964025 1.80300362m-13.89301175 8.03189998c.00841427 4.254 3.46321425 7.6947 7.71631425 7.6866143 4.2531-.0081143 7.6962-3.4626143 7.6881143-7.7166143-.0081143-4.254-3.4638143-7.69559998-7.7175143-7.68721533-4.2537.00841535-7.69499998 3.46381533-7.68691425 7.71721533m2.70180425-.0054c-.0054522-2.761471 2.2287325-5.0045146 4.9902035-5.0099904 2.761471-.0054558 5.0045175 2.228726 5.009997 4.990197.0054593 2.761471-2.2287195 5.0045204-4.9901905 5.0100045-1.3261582.0027764-2.5990901-.5214481-3.5386825-1.4573271s-1.4688535-2.2067251-1.4713275-3.532884"></path></svg>