<svg xmlns="http://www.w3.org/2000/svg" viewBox="0 0 32 32" aria-hidden="true" role="presentation" focusable="false" style="display: block; height: 16px; width: 16px; fill: currentcolor;"><path fill="#222" d="M30 0a2 2 0 0 1 2 2v28a2 2 0 0 1-2 2H2a2 2 0 0 1-2-2V2a2 2 0 0 1 2-2z"></path><path fill="#fff" d="M10 0h12.81v16.78l-5.88 10.13a.6.6 0 0 1-.99.09l-.06-.1L10 16.79z"></path><path fill="#222" d="M12.66 4.64v7.5h7.5v-7.5zm5.87 5.69h-1.5l-1.28-1.96v1.96h-1.47V6.45h1.43l1.32 1.95V6.45h1.5z"></path></svg>